<!DOCTYPE svg PUBLIC "-//W3C//DTD SVG 1.1//EN" "http://www.w3.org/Graphics/SVG/1.1/DTD/svg11.dtd">
<!-- Uploaded to: SVG Repo, www.svgrepo.com, Transformed by: SVG Repo Mixer Tools -->
<svg fill="#737373" width="800px" height="800px" viewBox="-2 0 16 16" id="company-16px" xmlns="http://www.w3.org/2000/svg" stroke="#737373" stroke-width="0.00016">
<g id="SVGRepo_bgCarrier" stroke-width="0"/>
<g id="SVGRepo_tracerCarrier" stroke-linecap="round" stroke-linejoin="round"/>
<g id="SVGRepo_iconCarrier"> <path id="Path_133" data-name="Path 133" d="M323.5-192h-9a1.5,1.5,0,0,0-1.5,1.5V-176h12v-14.5A1.5,1.5,0,0,0,323.5-192ZM318-177v-3h2v3Zm6,0h-3v-3.5a.5.5,0,0,0-.5-.5h-3a.5.5,0,0,0-.5.5v3.5h-3v-13.5a.5.5,0,0,1,.5-.5h9a.5.5,0,0,1,.5.5Zm-8-12h2v2h-2Zm4,0h2v2h-2Zm-4,4h2v2h-2Zm4,0h2v2h-2Z" transform="translate(-313 192)"/> </g>
</svg>