<!DOCTYPE svg PUBLIC "-//W3C//DTD SVG 1.1//EN" "http://www.w3.org/Graphics/SVG/1.1/DTD/svg11.dtd">
<!-- Uploaded to: SVG Repo, www.svgrepo.com, Transformed by: SVG Repo Mixer Tools -->
<svg fill="#737373" height="800px" width="800px" version="1.1" id="Layer_1" xmlns="http://www.w3.org/2000/svg" xmlns:xlink="http://www.w3.org/1999/xlink" viewBox="0 0 512.272 512.272" xml:space="preserve" stroke="#737373">
<g id="SVGRepo_bgCarrier" stroke-width="0"/>
<g id="SVGRepo_tracerCarrier" stroke-linecap="round" stroke-linejoin="round"/>
<g id="SVGRepo_iconCarrier"> <g> <g> <g> <path d="M440.805,381.149l-60.907-47.467c-17.173-13.44-41.173-13.333-58.24,0.213l-13.547,10.667 c-10.24,8.107-24.96,7.253-34.24-2.027l-108.907-109.12c-9.28-9.28-10.133-24.107-2.027-34.453l10.667-13.547 c13.547-17.067,13.547-41.173,0.213-58.24l-47.36-61.013c-8.32-10.667-20.8-17.28-34.347-18.133 c-13.44-0.747-26.667,4.267-36.267,13.76l-38.827,38.933c-21.653,21.653-52.907,90.987,122.773,266.987 c114.453,114.773,184.32,138.88,222.72,138.88c23.147,0,36.587-8.533,43.733-15.787l38.933-38.933 c18.453-18.453,18.347-48.427-0.107-66.88C443.685,383.602,442.298,382.323,440.805,381.149z M432.165,434.909 c-0.747,0.853-1.387,1.6-2.133,2.347l-38.933,38.933c-4.267,4.373-12.8,9.493-28.693,9.493 c-28.16,0-92.587-17.173-207.68-132.587c-132.48-132.8-148.907-210.56-122.667-236.8l38.933-39.04 c4.8-4.8,11.307-7.573,18.24-7.573c0.533,0,1.067,0,1.6,0c7.36,0.427,14.187,4.053,18.773,9.92l47.36,61.013 c7.36,9.387,7.253,22.613-0.107,32l-10.667,13.547c-14.827,18.773-13.227,45.653,3.627,62.72l108.907,109.227 c16.96,16.96,43.84,18.56,62.613,3.627l13.547-10.667c9.28-7.467,22.507-7.467,31.893-0.107l60.907,47.467 C438.992,407.282,441.018,423.602,432.165,434.909z"/> <path d="M465.125,5.682H283.472c-26.347,0-48.64,21.44-48.64,46.72v108.267c0,25.813,22.293,47.573,48.64,47.573h4.693v42.667 c0,5.867,4.8,10.667,10.667,10.667c2.773,0,5.333-1.067,7.36-2.88l54.187-50.453h104.853c25.92,0,47.04-21.333,47.04-47.573 V52.402C512.058,26.589,491.045,5.682,465.125,5.682z M490.938,160.776h-0.107c0,14.293-11.733,26.24-25.707,26.24H356.112 c-2.667,0-5.333,1.067-7.253,2.88l-39.36,36.587v-28.8c0-5.867-4.8-10.667-10.667-10.667h-15.36 c-14.293,0-27.307-12.48-27.307-26.24V52.402c0-13.547,12.8-25.387,27.307-25.387h181.76c14.08,0,25.6,11.307,25.707,25.387 V160.776z"/> <path d="M433.018,97.416c-3.947-1.6-8.533-0.64-11.627,2.347c-4.16,4.16-4.16,10.88,0,15.04c3.093,3.093,7.68,3.947,11.627,2.347 c1.28-0.533,2.453-1.28,3.413-2.347c2.027-2.027,3.093-4.693,3.093-7.467c0-2.88-1.067-5.547-3.093-7.573 C435.472,98.802,434.298,97.949,433.018,97.416z"/> <path d="M378.512,97.416c-3.947-1.6-8.533-0.64-11.627,2.347c-4.16,4.053-4.267,10.56-0.32,14.72 c0.107,0.107,0.213,0.213,0.32,0.32c0.96,1.067,2.133,1.813,3.413,2.347c3.947,1.707,8.64,0.747,11.627-2.347 c2.027-2.027,3.093-4.693,3.093-7.467c0-2.88-1.067-5.547-3.093-7.573C380.965,98.802,379.792,97.949,378.512,97.416z"/> <path d="M324.005,97.416c-5.44-2.347-11.733,0.213-13.973,5.653c-0.533,1.387-0.853,2.773-0.853,4.267 c0,2.773,1.173,5.44,3.093,7.467c2.027,2.027,4.693,3.2,7.573,3.2c1.387,0,2.88-0.32,4.16-0.853 c1.28-0.533,2.453-1.28,3.413-2.347c2.027-2.027,3.093-4.693,3.093-7.467c0-2.88-1.067-5.547-3.093-7.573 C326.458,98.802,325.285,97.949,324.005,97.416z"/> </g> </g> </g> </g>
</svg>